<svg width="138" height="135" fill="none" xmlns="http://www.w3.org/2000/svg"><path fill-rule="evenodd" clip-rule="evenodd" d="M68.498.203c16.158 1.437 27.698 14.474 39.58 25.94 12.595 12.153 29.407 23.263 29.91 41.112.508 18.057-14.84 31.234-27.525 43.591-12.12 11.807-25.375 25.078-41.965 24.103-16.121-.947-25.793-17.188-37.47-28.772C18.874 94.124 2.132 84.599.25 67.255-1.752 48.807 8.518 31.196 21.502 18.44 34.132 6.03 51.177-1.339 68.498.203z" fill="#3681F2" fill-opacity=".1"/><g clip-path="url(#clip0)"><path d="M102.539 37.655L76.943 56.16l-4.2 3.043a6.3 6.3 0 01-7.487 0l-4.2-3.044L35.43 37.686a7.561 7.561 0 016.179-3.165H96.39a7.6 7.6 0 016.148 3.135z" fill="#FFD54F"/><path d="M35.43 37.685L61.056 56.16 36.222 80.995A7.61 7.61 0 0134 75.607V42.13a7.507 7.507 0 011.43-4.444zM104 42.129v33.478a7.607 7.607 0 01-2.222 5.387L76.943 56.16l25.596-18.505A7.569 7.569 0 01104 42.129z" fill="#FFC107"/><path d="M79.652 89.303c-2.02 0-3.043-1.522-3.043-4.565a7.7 7.7 0 10-1.854 4.921 5.424 5.424 0 004.897 2.687c6.087 0 6.087-5.728 6.087-7.608 0-9.246-7.493-16.74-16.739-16.74s-16.74 7.493-16.74 16.737c0 9.243 7.494 16.739 16.74 16.739 4.343 0 8.516-1.69 11.638-4.709a1.525 1.525 0 00.03-2.157 1.528 1.528 0 00-2.16-.03c-5.445 5.25-14.116 5.094-19.366-.35-5.25-5.446-5.095-14.116.35-19.366 5.445-5.25 14.116-5.095 19.366.35a13.703 13.703 0 013.838 9.522c0 3.415-.767 4.569-3.044 4.569zm-10.652 0a4.567 4.567 0 01-4.565-4.565A4.565 4.565 0 1169 89.303z" fill="#455A64"/><path d="M76.944 56.16l-4.2 3.043a6.3 6.3 0 01-7.487 0l-4.2-3.044-24.835 24.835a7.61 7.61 0 005.387 2.222h7.685C50.118 72.332 59.608 64.179 70.488 65c9.74.736 17.48 8.476 18.216 18.215h7.687a7.608 7.608 0 005.387-2.222L76.943 56.16z" fill="#FFA000"/><path d="M96.391 83.216h-6.087a1.522 1.522 0 010-3.043h6.087a4.571 4.571 0 004.566-4.566V42.13a4.571 4.571 0 00-4.566-4.565H41.61a4.569 4.569 0 00-4.565 4.565v33.478a4.57 4.57 0 004.565 4.566h6.087a1.52 1.52 0 110 3.043H41.61C37.415 83.216 34 79.8 34 75.607V42.13c0-4.194 3.415-7.609 7.609-7.609H96.39c4.197 0 7.609 3.412 7.609 7.609v33.478c0 4.194-3.412 7.609-7.609 7.609z" fill="#000"/><path d="M69.003 61.957a7.862 7.862 0 01-4.647-1.525L40.72 43.362a1.518 1.518 0 01-.344-2.125 1.517 1.517 0 012.125-.343L66.148 57.97a4.809 4.809 0 005.7.007L95.5 40.894a1.522 1.522 0 011.783 2.465L73.635 60.435a7.821 7.821 0 01-4.632 1.522zM41.609 77.129c-.39 0-.78-.15-1.078-.444a1.523 1.523 0 010-2.152L55.75 59.316a1.523 1.523 0 012.152 2.151L42.683 76.685a1.517 1.517 0 01-1.074.444zm54.782 0c-.39 0-.779-.15-1.077-.444L80.097 61.467a1.523 1.523 0 012.151-2.151l15.218 15.217a1.523 1.523 0 010 2.151 1.516 1.516 0 01-1.075.445zM69.01 101.48c-.095 0-.19 0-.284-.003a16.626 16.626 0 01-11.754-5.098c-6.418-6.635-6.242-17.25.39-23.666a16.736 16.736 0 0111.915-4.709A16.641 16.641 0 0181.031 73.1a16.662 16.662 0 014.708 11.639 1.522 1.522 0 01-3.043 0c0-3.573-1.37-6.955-3.856-9.523a13.62 13.62 0 00-9.618-4.17c-3.585 0-7.118 1.312-9.748 3.856-5.426 5.25-5.57 13.936-.316 19.363a13.594 13.594 0 009.617 4.17c3.67.127 7.115-1.31 9.748-3.854a1.523 1.523 0 012.152.037 1.52 1.52 0 01-.037 2.152 16.614 16.614 0 01-11.629 4.711z" fill="#000"/><path d="M69 92.346c-4.194 0-7.609-3.415-7.609-7.608 0-4.194 3.415-7.609 7.609-7.609s7.609 3.412 7.609 7.609-3.415 7.608-7.609 7.608zm0-12.174a4.57 4.57 0 00-4.565 4.566A4.57 4.57 0 0069 89.303a4.57 4.57 0 004.565-4.565A4.57 4.57 0 0069 80.172z" fill="#000"/><path d="M79.652 92.346c-3.81 0-6.087-2.845-6.087-7.608a1.522 1.522 0 013.044 0c0 3.028 1.025 4.565 3.043 4.565 2.276 0 3.043-1.154 3.043-4.565a1.522 1.522 0 013.044 0c0 1.88 0 7.608-6.087 7.608z" fill="#000"/></g><defs><clipPath id="clip0"><path fill="#fff" transform="translate(34 33)" d="M0 0h70v70H0z"/></clipPath></defs></svg>