<svg width="138" height="135" fill="none" xmlns="http://www.w3.org/2000/svg"><path fill-rule="evenodd" clip-rule="evenodd" d="M68.498.203c16.158 1.437 27.698 14.474 39.58 25.94 12.595 12.153 29.407 23.263 29.91 41.112.508 18.057-14.84 31.234-27.525 43.591-12.12 11.807-25.375 25.078-41.965 24.103-16.121-.947-25.793-17.188-37.47-28.772C18.874 94.124 2.132 84.599.25 67.255-1.752 48.807 8.518 31.196 21.502 18.44 34.132 6.03 51.177-1.339 68.498.203z" fill="#9F36F2" fill-opacity=".1"/><path d="M44.75 100.812l16.406-21.874h19.688l16.406 21.874h-52.5z" fill="#54585E"/><path d="M61.156 78.938L44.75 100.811h49.219L77.563 78.938H61.156z" fill="#fff"/><path d="M40.375 61.438h4.375v39.374h-4.375V61.438zm56.875 0h4.375v39.374H97.25V61.438z" fill="#C1C8D1"/><path d="M46.938 37.375h48.124V59.25H46.938V37.375z" fill="#FFA000"/><path d="M46.938 37.375H91.78V59.25H46.937V37.375z" fill="#FFD54F"/><path d="M95.063 35.188h8.749v26.25h-8.75v-26.25z" fill="#FFA000"/><path d="M95.063 35.188h5.468v26.25h-5.469v-26.25z" fill="#FFD54F"/><path d="M38.188 35.188h8.75v26.25h-8.75v-26.25z" fill="#FFA000"/><path d="M38.188 35.188h5.468v26.25h-5.468v-26.25z" fill="#FFD54F"/><path d="M95.063 60.344H46.937c-.604 0-1.093-.49-1.093-1.094V37.375c0-.604.489-1.094 1.093-1.094h48.126c.604 0 1.093.49 1.093 1.094V59.25c0 .604-.489 1.094-1.094 1.094zM48.03 58.156h45.94V38.47H48.03v19.687z" fill="#000"/><path d="M46.938 62.531h-8.75c-.605 0-1.094-.49-1.094-1.093v-26.25c0-.604.489-1.094 1.093-1.094h8.75c.605 0 1.094.49 1.094 1.093v26.25c0 .604-.489 1.094-1.093 1.094zm-7.657-2.187h6.563V36.28H39.28v24.063zm64.531 2.187h-8.75c-.604 0-1.093-.49-1.093-1.093v-26.25c0-.604.489-1.094 1.094-1.094h8.749c.605 0 1.094.49 1.094 1.093v26.25c0 .604-.489 1.094-1.094 1.094zm-7.656-2.187h6.563V36.28h-6.563v24.063z" fill="#000"/><path d="M44.75 101.906h-4.375c-.605 0-1.094-.49-1.094-1.094V61.438h2.188v38.28h2.187v-38.28h2.188v39.374c0 .604-.49 1.094-1.094 1.094zm56.875 0H97.25c-.605 0-1.094-.49-1.094-1.094V61.438h2.188v38.28h2.187v-38.28h2.188v39.374c0 .604-.489 1.094-1.094 1.094z" fill="#000"/><path d="M97.25 101.906h-52.5a1.095 1.095 0 01-.875-1.75l16.406-21.875c.206-.275.53-.437.875-.437h19.688c.343 0 .668.162.875.437l16.406 21.875a1.093 1.093 0 01-.875 1.75zm-50.312-2.187h48.125L80.297 80.03H61.703L46.938 99.72zM53.5 53.781h-3.281v-2.187H53.5a1.095 1.095 0 000-2.188 3.285 3.285 0 01-3.281-3.281 3.285 3.285 0 013.281-3.281h3.281v2.187H53.5a1.095 1.095 0 000 2.188 3.285 3.285 0 013.281 3.281 3.285 3.285 0 01-3.281 3.281zm5.469-10.937h6.562v2.187H58.97v-2.187z" fill="#000"/><path d="M61.156 43.938h2.188v9.843h-2.188v-9.843zm24.063-1.094h6.562v2.187H85.22v-2.187z" fill="#000"/><path d="M87.406 43.938h2.188v9.843h-2.188v-9.843zm-13.125 9.843h-2.187v-7.656a1.095 1.095 0 00-2.188 0v7.656H67.72v-7.656A3.285 3.285 0 0171 42.844a3.285 3.285 0 013.281 3.281v7.656z" fill="#000"/><path d="M68.813 49.406h4.374v2.188h-4.374v-2.188zm14.218 4.375h-2.187v-2.187c0-.603-.49-1.094-1.094-1.094h-1.094v3.281H76.47v-9.843c0-.604.489-1.094 1.094-1.094h1.64a3.832 3.832 0 013.828 3.828c0 .989-.377 1.891-.994 2.571.612.596.994 1.43.994 2.35v2.188zm-4.375-5.468h.547a1.641 1.641 0 000-3.281h-.547v3.28zm-8.75 49.218h2.188v3.281h-2.188v-3.28zm0-4.375h2.188v2.188h-2.188v-2.188zm0-4.375h2.188v2.188h-2.188V88.78zm0-4.375h2.188v2.188h-2.188v-2.188zm0-5.468h2.188v3.28h-2.188v-3.28z" fill="#000"/></svg>