<svg width="138" height="135" fill="none" xmlns="http://www.w3.org/2000/svg"><path fill-rule="evenodd" clip-rule="evenodd" d="M68.498.203c16.158 1.437 27.698 14.474 39.58 25.94 12.595 12.153 29.407 23.263 29.91 41.112.508 18.057-14.84 31.234-27.525 43.591-12.12 11.807-25.375 25.078-41.965 24.103-16.121-.947-25.793-17.188-37.47-28.772C18.874 94.124 2.132 84.599.25 67.255-1.752 48.807 8.518 31.196 21.502 18.44 34.132 6.03 51.177-1.339 68.498.203z" fill="#3649F2" fill-opacity=".1"/><path d="M97.164 91.516H40.836a5.469 5.469 0 01-5.469-5.47V49.954a5.469 5.469 0 015.469-5.469h56.328a5.47 5.47 0 015.469 5.47v36.093a5.47 5.47 0 01-5.469 5.469z" fill="#FFD54F"/><path d="M81.867 68.777l8.467 15.054 1.23-4.597 4.595 1.234-6.56-11.69h-7.732zM81.266 68l-7.35 12.73-1.23-4.597-4.595 1.234 4.281-7.59L81.266 68z" fill="#fff"/><path d="M82.486 68.005h-.702a2.808 2.808 0 01-2.807-2.808v-2.924a2.808 2.808 0 012.807-2.808h.702a2.808 2.808 0 012.808 2.808v2.924a2.808 2.808 0 01-2.808 2.808z" fill="#FFA000"/><path d="M79.57 60.125l-7.829-3.694c-1.862-.878-4.005.48-4.005 2.54v9.579c0 2.059 2.143 3.418 4.005 2.539l7.83-3.694m5.109 0l7.829 3.694c1.862.879 4.005-.48 4.005-2.54V58.97c0-2.059-2.143-3.417-4.005-2.539l-7.83 3.694" fill="#fff"/><path d="M97.164 43.117H40.836A6.844 6.844 0 0034 49.953v36.094a6.844 6.844 0 006.836 6.836h21.191a1.367 1.367 0 100-2.735H40.836a4.106 4.106 0 01-4.102-4.101v-16.68H66.45a4.152 4.152 0 001.859 2.709 4.2 4.2 0 001.008.464l-2.407 4.14a1.367 1.367 0 001.536 2.007l3.274-.879.876 3.275a1.367 1.367 0 002.505.33l6.233-10.796 7.81 13.884a1.367 1.367 0 002.512-.317l.876-3.274 3.274.878a1.367 1.367 0 001.543-1.995l-4.02-7.085c.127.012.254.02.381.02.777 0 1.55-.22 2.233-.652a4.15 4.15 0 001.86-2.709h3.464v16.68a4.107 4.107 0 01-4.102 4.101H83.492v-7.382a1.367 1.367 0 10-2.734 0v7.382h-7.105a1.367 1.367 0 100 2.735h23.511A6.844 6.844 0 00104 86.047V49.953a6.844 6.844 0 00-6.836-6.836zM83.927 62.273v2.924c0 .795-.646 1.44-1.44 1.44h-.702a1.441 1.441 0 01-1.441-1.44v-2.924c0-.795.646-1.44 1.44-1.44h.703c.794 0 1.44.645 1.44 1.44zm-47.193-12.32a4.106 4.106 0 014.102-4.101h39.922v11.712c0 .226.056.439.153.626a4.145 4.145 0 00-1.227.477l-7.36-3.472a4.155 4.155 0 00-4.016.25 4.155 4.155 0 00-1.94 3.525v7.663H36.734v-16.68zm32.369 9.017c0-.503.244-.947.669-1.216.425-.27.93-.301 1.386-.086l6.708 3.165a4.144 4.144 0 00-.256 1.44v2.924c0 .522.097 1.022.273 1.483l-6.725 3.172c-.455.215-.96.184-1.386-.086a1.415 1.415 0 01-.67-1.217V58.97zm5.28 18.216l-.376-1.406a1.367 1.367 0 00-1.675-.967l-1.392.373 1.77-3.042 6.3-2.973-4.627 8.015zm17.535.728a1.368 1.368 0 00-1.675.967l-.362 1.355-6.208-11.037c.301-.09.588-.212.857-.363l4.72 2.227 4.107 7.237-1.439-.386zm3.23-9.364c0 .503-.245.947-.67 1.216-.425.27-.93.301-1.386.086l-6.707-3.164c.178-.463.276-.966.276-1.49v-2.925c0-.51-.091-.997-.259-1.449l6.69-3.156c.456-.215.96-.184 1.386.086.425.27.67.713.67 1.217v9.579zm2.734-1.917V58.97a4.155 4.155 0 00-1.94-3.527 4.155 4.155 0 00-4.017-.25l-7.347 3.467a4.143 4.143 0 00-1.237-.475 1.36 1.36 0 00.151-.622V45.852h13.672a4.106 4.106 0 014.102 4.101v16.68h-3.384z" fill="#000"/><path d="M67.735 90.148c-.36 0-.712.147-.966.401a1.371 1.371 0 000 1.933c.254.255.607.4.966.4a1.369 1.369 0 00.967-2.333 1.378 1.378 0 00-.967-.4zM62.916 50.5H42.75a1.367 1.367 0 100 2.734h20.166a1.367 1.367 0 100-2.734zm0 30.898H42.75a1.367 1.367 0 100 2.735h20.166a1.367 1.367 0 100-2.735zM51.227 57.883H42.75a1.367 1.367 0 100 2.734h8.477a1.367 1.367 0 100-2.734zm5.289 0c-.36 0-.712.146-.966.4-.255.255-.4.607-.4.967s.145.712.4.967c.254.254.605.4.966.4.36 0 .713-.146.967-.4.254-.255.4-.607.4-.967s-.146-.712-.4-.967a1.378 1.378 0 00-.967-.4z" fill="#000"/></svg>