<svg width="30" height="30" fill="none" xmlns="http://www.w3.org/2000/svg"><path d="M29.629 10.767l-12.422-8.79a.88.88 0 00-1.387.718v4.417a16.579 16.579 0 00-10.929 4.869A16.59 16.59 0 000 23.789v3.516a.88.88 0 001.724.241l.135-.473c1.802-6.308 7.47-10.795 13.961-11.169v4.37a.879.879 0 001.387.717l12.422-8.79a.879.879 0 000-1.434zm-12.05 7.808V15a.879.879 0 00-.88-.879 17.15 17.15 0 00-5.524.91 17.212 17.212 0 00-9.381 7.712C2.333 14.99 8.812 8.848 16.699 8.848a.879.879 0 00.88-.88V4.395l10.02 7.09-10.02 7.09z" fill="url(#paint0_linear)"/><defs><linearGradient id="paint0_linear" x1="15" y1="28.184" x2="15" y2="1.816" gradientUnits="userSpaceOnUse"><stop stop-color="#5558FF"/><stop offset="1" stop-color="#00C0FF"/></linearGradient></defs></svg>